<svg width="56" height="56" viewBox="0 0 56 56" fill="none" xmlns="http://www.w3.org/2000/svg">
<path d="M43.2487 25.2654C43.1644 25.1984 42.3767 24.6036 40.7155 24.6036C40.2769 24.6055 39.8392 24.6431 39.4067 24.7161C39.0852 22.5125 37.2633 21.4381 37.1816 21.3899L36.7356 21.1326L36.4422 21.556C36.0748 22.1246 35.8066 22.7515 35.6491 23.41C35.3517 24.6679 35.5326 25.8494 36.1716 26.8595C35.4 27.2895 34.1622 27.3953 33.9117 27.4047H13.4183C12.883 27.4054 12.4487 27.838 12.4458 28.3732C12.4219 30.1686 12.726 31.9532 13.3433 33.6392C14.0493 35.4906 15.0995 36.8543 16.4659 37.6889C17.9971 38.6266 20.4848 39.1625 23.3046 39.1625C24.5785 39.1665 25.85 39.0512 27.1025 38.8182C28.8435 38.4985 30.5187 37.89 32.059 37.0177C33.3282 36.2828 34.4704 35.3478 35.4415 34.2487C37.0651 32.4108 38.0324 30.3638 38.7517 28.5447H39.0384C40.816 28.5447 41.9092 27.8333 42.512 27.2372C42.9126 26.857 43.2254 26.3939 43.4283 25.8802L43.5556 25.5078L43.2487 25.2654Z" fill="#2496ED"/>
<path d="M15.3179 26.8046H18.0641C18.1965 26.8046 18.3039 26.6972 18.3039 26.5648V24.1186C18.3046 23.9862 18.1979 23.8782 18.0654 23.8775C18.065 23.8775 18.0645 23.8775 18.0641 23.8775H15.3179C15.1855 23.8775 15.0781 23.9849 15.0781 24.1173V24.1186V26.5647C15.0781 26.6972 15.1855 26.8046 15.3179 26.8046Z" fill="#2496ED"/>
<path d="M19.1023 26.8046H21.8485C21.981 26.8046 22.0883 26.6972 22.0883 26.5648V24.1186C22.089 23.9862 21.9823 23.8782 21.8498 23.8775C21.8494 23.8775 21.8489 23.8775 21.8485 23.8775H19.1023C18.9691 23.8775 18.8611 23.9854 18.8611 24.1186V26.5647C18.8619 26.6974 18.9696 26.8046 19.1023 26.8046Z" fill="#2496ED"/>
<path d="M22.9443 26.8046H25.6905C25.8229 26.8046 25.9303 26.6972 25.9303 26.5648V24.1186C25.931 23.9862 25.8242 23.8782 25.6918 23.8775C25.6914 23.8775 25.6909 23.8775 25.6904 23.8775H22.9442C22.8118 23.8775 22.7045 23.9849 22.7045 24.1173V24.1186V26.5647C22.7045 26.6972 22.8119 26.8046 22.9443 26.8046Z" fill="#2496ED"/>
<path d="M26.7408 26.8046H29.4869C29.6196 26.8046 29.7273 26.6975 29.7281 26.5648V24.1186C29.7281 23.9854 29.6201 23.8775 29.4869 23.8775H26.7408C26.6083 23.8775 26.501 23.9849 26.501 24.1173V24.1186V26.5647C26.501 26.6972 26.6083 26.8046 26.7408 26.8046Z" fill="#2496ED"/>
<path d="M19.1023 23.2854H21.8485C21.9811 23.2847 22.0882 23.1769 22.0882 23.0443V20.5982C22.0882 20.4657 21.9809 20.3584 21.8485 20.3584H19.1023C18.9696 20.3584 18.8619 20.4655 18.8611 20.5982V23.0443C18.8619 23.1772 18.9694 23.2847 19.1023 23.2854Z" fill="#2496ED"/>
<path d="M22.9442 23.2854H25.6904C25.8231 23.2847 25.9302 23.1769 25.9302 23.0443V20.5982C25.9302 20.4657 25.8228 20.3584 25.6904 20.3584H22.9442C22.8118 20.3584 22.7045 20.4658 22.7045 20.5982V23.0443C22.7045 23.1769 22.8116 23.2847 22.9442 23.2854Z" fill="#2496ED"/>
<path d="M26.7408 23.2854H29.4869C29.6198 23.2847 29.7273 23.1772 29.7281 23.0443V20.5982C29.7273 20.4655 29.6196 20.3584 29.4869 20.3584H26.7408C26.6083 20.3584 26.501 20.4658 26.501 20.5982V23.0443C26.501 23.1769 26.6081 23.2847 26.7408 23.2854Z" fill="#2496ED"/>
<path d="M26.7408 19.765H29.4869C29.6196 19.765 29.7273 19.6578 29.7281 19.5252V17.0777C29.7273 16.945 29.6196 16.8379 29.4869 16.8379H26.7408C26.6083 16.8379 26.501 16.9452 26.501 17.0777V19.5251C26.501 19.6576 26.6083 19.765 26.7408 19.765Z" fill="#2496ED"/>
<path d="M30.5706 26.8046H33.3168C33.4495 26.8046 33.5572 26.6975 33.558 26.5648V24.1186C33.558 23.9854 33.45 23.8775 33.3168 23.8775H30.5706C30.4382 23.8775 30.3309 23.9849 30.3309 24.1173V24.1186V26.5647C30.3309 26.6972 30.4382 26.8046 30.5706 26.8046Z" fill="#2496ED"/>
</svg>
