<svg width="56" height="56" viewBox="0 0 56 56" fill="none" xmlns="http://www.w3.org/2000/svg">
<path d="M23.7756 19.1313C19.7099 18.3909 16.4953 19.166 15.2141 21.3848C14.2581 23.0406 14.531 25.2362 15.8765 27.583C15.9037 27.6305 15.94 27.6723 15.9834 27.7057C16.0267 27.7392 16.0763 27.7639 16.1291 27.7782C16.182 27.7926 16.2372 27.7963 16.2915 27.7893C16.3458 27.7823 16.3983 27.7647 16.4458 27.7374C16.5417 27.6824 16.6119 27.5915 16.6409 27.4847C16.6698 27.378 16.6552 27.2641 16.6002 27.1681C15.3881 25.0543 15.1519 23.1595 15.9363 21.8017C17.0004 19.9585 19.8675 19.267 23.6259 19.9517C23.6938 19.9651 23.764 19.9614 23.8302 19.9409C23.8963 19.9205 23.9563 19.8838 24.0048 19.8343C24.0532 19.7848 24.0886 19.7241 24.1077 19.6575C24.1268 19.5909 24.129 19.5207 24.1142 19.453C24.0962 19.3717 24.0544 19.2976 23.9939 19.2403C23.9335 19.183 23.8573 19.145 23.7752 19.1314L23.7756 19.1313ZM17.9907 30.4353C19.6345 32.242 21.7703 33.9364 24.206 35.3428C30.1034 38.7478 36.3818 39.6579 39.4759 37.548C39.565 37.4848 39.6258 37.3892 39.6451 37.2816C39.6644 37.1741 39.6408 37.0633 39.5793 36.973C39.5177 36.8827 39.4232 36.8202 39.3161 36.7989C39.2089 36.7776 39.0977 36.7992 39.0063 36.859C36.2369 38.7474 30.273 37.8828 24.623 34.6207C22.2598 33.2562 20.1919 31.6156 18.6075 29.8744C18.5525 29.8119 18.4799 29.7673 18.3993 29.7464C18.3186 29.7254 18.2336 29.7291 18.155 29.7569C18.0897 29.7801 18.0313 29.8192 17.9849 29.8707C17.9385 29.9222 17.9057 29.9844 17.8894 30.0517C17.8731 30.119 17.8738 30.1893 17.8915 30.2563C17.9092 30.3233 17.9433 30.3848 17.9907 30.4353Z" fill="#2DD0ED"/>
<path d="M38.4892 29.9282C41.1513 26.7834 42.0809 23.6203 40.8025 21.4059C39.8618 19.7766 37.8728 18.9163 35.2299 18.882C35.1194 18.8806 35.0128 18.9231 34.9335 19.0002C34.8543 19.0774 34.809 19.1828 34.8074 19.2933C34.8062 19.3758 34.8295 19.4568 34.8744 19.526C34.9193 19.5952 34.9838 19.6495 35.0596 19.6819C35.11 19.7036 35.164 19.7151 35.2188 19.7159C37.5959 19.7466 39.3096 20.4879 40.0804 21.8229C41.1421 23.6622 40.3134 26.483 37.8529 29.3896C37.8162 29.4312 37.7883 29.4797 37.7706 29.5322C37.7529 29.5848 37.7459 29.6403 37.75 29.6956C37.7541 29.7509 37.7691 29.8048 37.7943 29.8541C37.8195 29.9035 37.8543 29.9474 37.8966 29.9832C37.9389 30.0189 37.988 30.0458 38.0408 30.0624C38.0937 30.079 38.1493 30.0849 38.2044 30.0798C38.2596 30.0747 38.3132 30.0586 38.3621 30.0326C38.411 30.0066 38.4542 29.9711 38.4892 29.9282ZM31.6479 19.2702C29.2408 19.786 26.679 20.7943 24.2188 22.2147C18.1304 25.7297 14.1589 30.9125 14.7107 34.6709C14.7175 34.726 14.7353 34.7791 14.763 34.8273C14.7907 34.8754 14.8277 34.9175 14.8719 34.9511C14.9161 34.9847 14.9665 35.0092 15.0203 35.0231C15.0741 35.0369 15.1301 35.0399 15.185 35.0318C15.2399 35.0237 15.2927 35.0048 15.3402 34.976C15.3877 34.9473 15.429 34.9093 15.4616 34.8644C15.4942 34.8195 15.5176 34.7685 15.5302 34.7145C15.5429 34.6604 15.5447 34.6044 15.5354 34.5496C15.0458 31.2129 18.8102 26.2999 24.6354 22.9368C27.0221 21.5588 29.5029 20.5828 31.8226 20.0853C31.9275 20.0589 32.018 19.9929 32.0751 19.9012C32.1322 19.8094 32.1514 19.699 32.1288 19.5934C32.1061 19.4877 32.0433 19.3949 31.9536 19.3346C31.8639 19.2743 31.7543 19.2512 31.6479 19.2702Z" fill="#2DD0ED"/>
<path d="M21.7846 37.2763C23.177 41.1625 25.4537 43.5556 28.0144 43.5556C29.8816 43.5556 31.6092 42.2828 32.9565 40.0417C32.9867 39.9948 33.0072 39.9422 33.0168 39.8872C33.0263 39.8322 33.0247 39.7759 33.0121 39.7215C32.9963 39.6534 32.9636 39.5903 32.9171 39.5381C32.8705 39.4859 32.8116 39.4463 32.7457 39.4229C32.6798 39.3995 32.609 39.393 32.54 39.4041C32.4709 39.4152 32.4058 39.4435 32.3506 39.4864C32.3064 39.5206 32.2697 39.5633 32.2424 39.612C31.0314 41.6261 29.544 42.7221 28.0144 42.7221C25.8877 42.7221 23.8565 40.5875 22.5698 36.9951C22.5522 36.9425 22.5242 36.8939 22.4876 36.8522C22.451 36.8105 22.4064 36.7765 22.3565 36.7522C22.3066 36.728 22.2523 36.714 22.1969 36.711C22.1415 36.7081 22.0861 36.7162 22.0338 36.735C21.9816 36.7537 21.9337 36.7827 21.8928 36.8202C21.8519 36.8577 21.8189 36.903 21.7957 36.9534C21.7725 37.0038 21.7596 37.0583 21.7577 37.1137C21.7559 37.1692 21.7652 37.2245 21.785 37.2763H21.7846ZM34.4986 36.5158C35.2191 34.2138 35.6058 31.5573 35.6058 28.7892C35.6058 21.8827 33.1888 15.9287 29.7455 14.3998C29.6449 14.3575 29.5317 14.3563 29.4302 14.3965C29.3287 14.4367 29.247 14.5152 29.2027 14.6149C29.1584 14.7147 29.155 14.8279 29.1932 14.9302C29.2315 15.0324 29.3083 15.1156 29.4071 15.1619C32.4781 16.5256 34.7723 22.176 34.7723 28.7892C34.7723 31.4743 34.3973 34.047 33.7031 36.267C33.6851 36.3196 33.6778 36.3753 33.6818 36.4308C33.6857 36.4863 33.7007 36.5404 33.7259 36.59C33.7639 36.6647 33.8234 36.7262 33.8968 36.7665C33.9703 36.8069 34.0541 36.8242 34.1375 36.8162C34.2209 36.8082 34.3 36.7753 34.3644 36.7217C34.4288 36.6681 34.4755 36.5964 34.4986 36.5158ZM42.3502 36.1077C42.3519 35.8446 42.3015 35.5838 42.202 35.3402C42.1024 35.0967 41.9557 34.8752 41.7703 34.6886C41.5848 34.5019 41.3643 34.3538 41.1214 34.2527C40.8785 34.1517 40.618 34.0996 40.3549 34.0996C40.0918 34.0997 39.8313 34.1517 39.5883 34.2528C39.3454 34.3539 39.1249 34.502 38.9395 34.6886C38.754 34.8753 38.6073 35.0967 38.5078 35.3403C38.4083 35.5838 38.3579 35.8447 38.3596 36.1078C38.363 36.6347 38.5747 37.139 38.9486 37.5104C39.3224 37.8818 39.828 38.0903 40.355 38.0903C40.8819 38.0903 41.3875 37.8818 41.7613 37.5104C42.1351 37.1389 42.3468 36.6347 42.3502 36.1077ZM41.5163 36.1077C41.5163 36.4157 41.3939 36.7111 41.1761 36.9289C40.9583 37.1467 40.6629 37.2691 40.3549 37.2691C40.1252 37.2691 39.9007 37.201 39.7097 37.0734C39.5187 36.9458 39.3699 36.7644 39.282 36.5522C39.1941 36.34 39.1711 36.1065 39.2159 35.8812C39.2607 35.6559 39.3713 35.449 39.5337 35.2866C39.6962 35.1241 39.9031 35.0135 40.1284 34.9687C40.3536 34.9239 40.5871 34.9469 40.7993 35.0348C41.0116 35.1227 41.1929 35.2715 41.3206 35.4625C41.4482 35.6535 41.5163 35.878 41.5163 36.1077ZM15.6451 38.103C15.9071 38.103 16.1666 38.0515 16.4087 37.9512C16.6508 37.8509 16.8708 37.704 17.0561 37.5187C17.2414 37.3334 17.3883 37.1134 17.4886 36.8713C17.5889 36.6292 17.6404 36.3697 17.6404 36.1077C17.6404 35.8457 17.5888 35.5862 17.4886 35.3441C17.3883 35.102 17.2413 34.882 17.056 34.6967C16.8707 34.5114 16.6507 34.3645 16.4086 34.2642C16.1665 34.1639 15.9071 34.1123 15.645 34.1124C15.383 34.1124 15.1235 34.164 14.8814 34.2642C14.6394 34.3645 14.4194 34.5115 14.2341 34.6968C14.0488 34.8821 13.9019 35.102 13.8016 35.3441C13.7014 35.5862 13.6498 35.8457 13.6498 36.1077C13.6498 36.3697 13.7014 36.6292 13.8016 36.8713C13.9019 37.1134 14.0489 37.3334 14.2341 37.5186C14.4194 37.7039 14.6394 37.8509 14.8815 37.9512C15.1236 38.0514 15.3831 38.103 15.6451 38.103ZM15.6451 37.2691C15.337 37.2691 15.0415 37.1468 14.8237 36.9289C14.6058 36.711 14.4834 36.4156 14.4834 36.1075C14.4834 35.7994 14.6058 35.5039 14.8237 35.286C15.0415 35.0681 15.337 34.9458 15.6451 34.9458C15.9532 34.9458 16.2487 35.0681 16.4665 35.286C16.6844 35.5039 16.8068 35.7994 16.8068 36.1075C16.8068 36.4156 16.6844 36.711 16.4665 36.9289C16.2487 37.1468 15.9532 37.2691 15.6451 37.2691Z" fill="#2DD0ED"/>
<path d="M28.0144 16.4351C28.409 16.4351 28.7948 16.3181 29.1229 16.0988C29.4511 15.8796 29.7068 15.5679 29.8578 15.2033C29.9833 14.9001 30.0321 14.5707 29.9999 14.2442C29.9677 13.9177 29.8555 13.6041 29.6732 13.3313C29.4909 13.0585 29.2442 12.8349 28.9548 12.6802C28.6655 12.5255 28.3425 12.4445 28.0144 12.4445C27.6197 12.4444 27.2339 12.5614 26.9057 12.7806C26.5775 12.9998 26.3218 13.3115 26.1707 13.6761C26.0197 14.0407 25.9802 14.4419 26.0572 14.829C26.1342 15.216 26.3243 15.5716 26.6034 15.8506C26.7887 16.0359 27.0087 16.1829 27.2508 16.2831C27.4929 16.3834 27.7523 16.435 28.0144 16.435V16.4351ZM28.0144 15.6011C27.7847 15.6011 27.5601 15.533 27.3691 15.4054C27.1781 15.2778 27.0293 15.0964 26.9413 14.8842C26.8829 14.7433 26.8528 14.5923 26.8528 14.4397C26.8528 14.2872 26.8829 14.1362 26.9413 13.9953C26.9997 13.8543 27.0852 13.7263 27.193 13.6185C27.3009 13.5106 27.4289 13.4251 27.5698 13.3667C27.7285 13.301 27.8998 13.2713 28.0714 13.2797C28.2429 13.2882 28.4105 13.3345 28.5619 13.4155C28.7134 13.4965 28.8451 13.61 28.9474 13.748C29.0497 13.8859 29.1201 14.0449 29.1536 14.2133C29.1871 14.3818 29.1829 14.5556 29.1411 14.7222C29.0994 14.8888 29.0212 15.0441 28.9123 15.1769C28.8033 15.3096 28.6663 15.4166 28.511 15.49C28.3557 15.5635 28.1861 15.6015 28.0144 15.6015V15.6011ZM28.3191 30.2007C27.9448 30.2815 27.5538 30.2103 27.2319 30.0029C26.9918 29.8482 26.803 29.6257 26.6894 29.3637C26.5758 29.1016 26.5424 28.8118 26.5935 28.5308C26.6447 28.2498 26.778 27.9903 26.9766 27.7851C27.1753 27.5798 27.4303 27.4381 27.7095 27.3779C28.0812 27.3036 28.4673 27.3785 28.7843 27.5863C29.1013 27.7942 29.3239 28.1184 29.404 28.4889C29.484 28.8595 29.4151 29.2466 29.2121 29.5668C29.0091 29.887 28.6884 30.1145 28.3191 30.2003V30.2007Z" fill="#2DD0ED"/>
</svg>
