<svg width="56" height="56" viewBox="0 0 56 56" fill="none" xmlns="http://www.w3.org/2000/svg">
<path d="M31.5175 23.6817L28.4061 26.5786L25.518 20.7506L27.01 17.3997C27.3871 16.7312 28.0038 16.7224 28.3809 17.3997L31.5175 23.6817Z" fill="#FFA000"/>
<path d="M28.4074 26.5774L16.7691 37.4022L25.5193 20.7507L28.4074 26.5774Z" fill="#F57F17"/>
<path d="M34.929 19.2511C35.4865 18.7201 36.0603 18.8992 36.2053 19.6534L39.2309 37.2559L29.1956 43.2806C28.8438 43.4774 27.9105 43.5543 27.9105 43.5543C27.9105 43.5543 27.0617 43.4509 26.7363 43.2718L16.7691 37.4022L34.929 19.2511Z" fill="#FFCA28"/>
<path d="M25.5192 20.7506L16.7691 37.4022L20.6687 13.0637C20.815 12.3095 21.2425 12.2326 21.6285 12.901L25.5192 20.7506Z" fill="#FFA000"/>
</svg>
