<svg width="56" height="56" viewBox="0 0 56 56" fill="none" xmlns="http://www.w3.org/2000/svg">
<path d="M41.101 36.4763C39.4083 36.4335 38.0964 36.6053 36.9961 37.0778C36.6787 37.2065 36.1708 37.2067 36.1285 37.6148C36.2978 37.7866 36.3189 38.0659 36.4671 38.3021C36.7212 38.7316 37.1653 39.3115 37.5674 39.6124C38.0116 39.956 38.4562 40.2995 38.9215 40.6003C39.7468 41.1158 40.6779 41.4164 41.4819 41.932C41.9476 42.2325 42.4128 42.6194 42.8784 42.9415C43.1112 43.1131 43.2592 43.3926 43.5556 43.4998V43.4355C43.4073 43.2421 43.365 42.9629 43.217 42.7481C43.0056 42.5333 42.7937 42.34 42.5821 42.1252C41.9685 41.2877 41.2068 40.5573 40.3816 39.956C39.7046 39.4834 38.2233 38.8391 37.9483 38.0443C37.9483 38.0443 37.927 38.0229 37.906 38.0015C38.3714 37.9585 38.9215 37.7866 39.366 37.6578C40.0854 37.4643 40.7413 37.5074 41.4819 37.3141C41.8204 37.2281 42.159 37.1207 42.4975 37.0133V36.8201C42.1168 36.4335 41.8417 35.918 41.4396 35.5529C40.3605 34.6076 39.1754 33.6842 37.9483 32.911C37.2923 32.4813 36.4458 32.2021 35.7476 31.837C35.4939 31.708 35.0705 31.6437 34.9225 31.4289C34.5415 30.9564 34.3298 30.3336 34.0548 29.7751C33.4414 28.5937 32.8487 27.2836 32.3197 26.0379C31.939 25.2002 31.7062 24.3624 31.2407 23.5893C29.0612 19.938 26.6914 17.7257 23.052 15.5562C22.269 15.1052 21.338 14.9119 20.3435 14.6757C19.8147 14.6541 19.2855 14.6113 18.7566 14.5897C18.418 14.4393 18.0794 14.0313 17.7832 13.838C16.5773 13.0647 13.4666 11.3895 12.578 13.6018C12.0066 14.9978 13.4244 16.3724 13.9109 17.0814C14.2709 17.5753 14.7362 18.1337 14.9902 18.6922C15.1383 19.0571 15.1805 19.444 15.3286 19.8305C15.6673 20.7753 15.9845 21.828 16.4291 22.7087C16.6618 23.1597 16.9157 23.6322 17.2119 24.0403C17.3812 24.2765 17.6774 24.384 17.741 24.7705C17.4448 25.2002 17.4235 25.8446 17.2541 26.3815C16.4924 28.8086 16.7888 31.8156 17.8678 33.5982C18.2063 34.135 19.0104 35.3167 20.0896 34.8655C21.0419 34.4789 20.8302 33.2547 21.1051 32.1807C21.1688 31.9227 21.1265 31.7511 21.2534 31.5793V31.6224C21.5496 32.2236 21.8458 32.8037 22.1209 33.405C22.7769 34.4573 23.9194 35.5529 24.8716 36.2832C25.3796 36.6696 25.7815 37.3355 26.4164 37.5718V37.5073H26.3739C26.247 37.3139 26.0565 37.2281 25.8873 37.0776C25.5065 36.6912 25.0832 36.2187 24.787 35.789C23.8985 34.5861 23.1154 33.2545 22.4171 31.8799C22.0787 31.2142 21.7823 30.4839 21.5073 29.8181C21.3802 29.5601 21.3802 29.1736 21.1687 29.0449C20.8513 29.5173 20.3858 29.9255 20.1531 30.5053C19.7512 31.4289 19.7088 32.5673 19.5606 33.7485C19.476 33.7702 19.5182 33.7485 19.4759 33.7917C18.7989 33.6196 18.5662 32.911 18.3121 32.3095C17.6772 30.7846 17.5714 28.336 18.1218 26.5748C18.2699 26.1237 18.9048 24.7062 18.6508 24.2766C18.5238 23.8685 18.1005 23.6322 17.8678 23.3101C17.5928 22.902 17.2964 22.3867 17.1061 21.9354C16.5982 20.7326 16.3443 19.4009 15.7942 18.1981C15.5403 17.6396 15.0961 17.0599 14.7362 16.5443C14.3343 15.9645 13.8899 15.5562 13.5724 14.8689C13.4668 14.6328 13.3185 14.2461 13.4878 13.9883C13.5301 13.8165 13.6146 13.7522 13.7841 13.7092C14.0592 13.4728 14.8422 13.7735 15.117 13.9024C15.9 14.2244 16.5559 14.5254 17.2119 14.9763C17.5081 15.1912 17.8255 15.5993 18.2063 15.7067H18.6507C19.3279 15.8569 20.0895 15.7497 20.7243 15.9429C21.8459 16.3079 22.8614 16.8449 23.7714 17.4249C26.5433 19.2076 28.8283 21.7421 30.3732 24.7705C30.6271 25.2644 30.7328 25.7157 30.9656 26.231C31.4101 27.2836 31.9602 28.3575 32.4043 29.3885C32.8487 30.3978 33.2719 31.4289 33.9067 32.2667C34.2241 32.7175 35.4936 32.9539 36.065 33.1902C36.4882 33.3834 37.1442 33.5554 37.525 33.7916C38.2444 34.2424 38.9638 34.7582 39.641 35.252C39.9796 35.5098 41.0374 36.0468 41.101 36.4763Z" fill="#14B8A6"/>
<path d="M19.5181 17.8113C19.1585 17.8113 18.9046 17.8545 18.6507 17.9189V17.9618H18.693C18.8624 18.3055 19.1585 18.5418 19.37 18.8424C19.5394 19.186 19.6874 19.5298 19.8568 19.8735C19.8778 19.8519 19.899 19.8305 19.899 19.8305C20.1954 19.6156 20.3434 19.272 20.3434 18.7565C20.2164 18.6063 20.1953 18.4559 20.0895 18.3055C19.9626 18.0906 19.6874 17.9833 19.5181 17.8113Z" fill="#14B8A6"/>
</svg>
